<svg width="19" height="22" viewBox="0 0 19 22" fill="none" xmlns="http://www.w3.org/2000/svg">
<path d="M6.33334 5.96301H12.3333C12.3333 4.30616 10.9902 2.96301 9.33334 2.96301C7.67644 2.96301 6.33334 4.30616 6.33334 5.96301ZM4.33334 5.96301C4.33334 3.20159 6.57192 0.963013 9.33334 0.963013C12.0947 0.963013 14.3333 3.20159 14.3333 5.96301H17.3333C17.8856 5.96301 18.3333 6.41073 18.3333 6.96301V20.963C18.3333 21.5153 17.8856 21.963 17.3333 21.963H1.33334C0.781056 21.963 0.333336 21.5153 0.333336 20.963V6.96301C0.333336 6.41073 0.781056 5.96301 1.33334 5.96301H4.33334ZM2.33334 7.96301V19.963H16.3333V7.96301H2.33334ZM6.33334 9.96301C6.33334 11.6199 7.67644 12.963 9.33334 12.963C10.9902 12.963 12.3333 11.6199 12.3333 9.96301H14.3333C14.3333 12.7244 12.0947 14.963 9.33334 14.963C6.57192 14.963 4.33334 12.7244 4.33334 9.96301H6.33334Z" fill="white"/>
</svg>
